<svg width="194" height="26" viewBox="0 0 194 26" fill="none" xmlns="http://www.w3.org/2000/svg">
<circle cx="181" cy="13" r="13" fill="#C4C4C4" fill-opacity="0.5"/>
<path fill-rule="evenodd" clip-rule="evenodd" d="M184.006 12.7728L179.494 10.5172C179.494 10.5172 178.24 9.94726 178.24 11.0186V16.031C178.24 16.031 178.264 16.7955 179.494 16.2815C180.35 15.9237 184.006 14.0258 184.006 14.0258C184.006 14.0258 184.939 13.4282 184.006 12.7728ZM189.521 17.7852C188.962 19.3749 187.767 19.5797 186.764 19.7901C185.285 20.1002 175.772 20.0612 174.229 19.5394C173.267 19.2141 172.675 19.0741 172.224 16.7827C171.935 15.3165 171.916 11.003 172.224 9.51494C172.522 8.07408 173.271 7.39753 174.731 7.25928C178.651 6.88785 185.205 6.94029 187.265 7.25928C189.175 7.55486 189.574 8.69385 189.772 9.76545C190.093 11.5004 190.13 16.0524 189.521 17.7852Z" fill="white"/>
<circle cx="125" cy="13" r="13" fill="#C4C4C4" fill-opacity="0.5"/>
<path fill-rule="evenodd" clip-rule="evenodd" d="M121.702 5.04829C120.85 5.087 120.269 5.22215 119.76 5.42002C119.234 5.62431 118.788 5.89803 118.343 6.34276C117.898 6.78749 117.624 7.23351 117.42 7.75967C117.222 8.26869 117.087 8.85014 117.048 9.7016C117.009 10.5549 117 10.8272 117 13C117 15.1728 117.009 15.4449 117.048 16.2984C117.087 17.1499 117.222 17.7313 117.42 18.24C117.624 18.7662 117.898 19.2125 118.343 19.6571C118.788 20.102 119.234 20.3754 119.76 20.58C120.269 20.7779 120.85 20.913 121.702 20.9517C122.555 20.9907 122.827 21 125 21C127.173 21 127.445 20.9907 128.299 20.9517C129.15 20.913 129.732 20.7779 130.241 20.58C130.766 20.3754 131.213 20.102 131.657 19.6571C132.102 19.2125 132.376 18.7662 132.58 18.24C132.778 17.7313 132.913 17.1499 132.952 16.2984C132.991 15.4449 133 15.1728 133 13C133 10.8272 132.991 10.5549 132.952 9.7016C132.913 8.85014 132.778 8.26869 132.58 7.75967C132.376 7.23351 132.102 6.78749 131.657 6.34276C131.213 5.89803 130.766 5.62431 130.241 5.42002C129.732 5.22215 129.15 5.087 128.299 5.04829C127.445 5.00943 127.173 5 125 5C122.827 5 122.555 5.00943 121.702 5.04829ZM121.767 19.5116C120.987 19.4761 120.564 19.3461 120.282 19.2364C119.908 19.091 119.642 18.9177 119.362 18.6378C119.082 18.358 118.909 18.0915 118.764 17.7181C118.654 17.4362 118.524 17.0126 118.488 16.2326C118.45 15.389 118.441 15.1359 118.441 12.9999C118.441 10.8637 118.45 10.6108 118.488 9.76709C118.524 8.9872 118.654 8.56362 118.764 8.28175C118.909 7.90831 119.082 7.64173 119.362 7.36186C119.642 7.08199 119.908 6.90841 120.282 6.76355C120.564 6.65398 120.987 6.52369 121.767 6.48797C122.611 6.44954 122.864 6.4414 125 6.4414C127.136 6.4414 127.389 6.44954 128.233 6.48797C129.013 6.52369 129.436 6.65398 129.718 6.76355C130.092 6.90841 130.358 7.08199 130.638 7.36186C130.918 7.64173 131.091 7.90831 131.237 8.28175C131.346 8.56362 131.477 8.9872 131.512 9.76709C131.551 10.6108 131.559 10.8637 131.559 12.9999C131.559 15.1359 131.551 15.389 131.512 16.2326C131.477 17.0126 131.346 17.4362 131.237 17.7181C131.091 18.0915 130.918 18.358 130.638 18.6378C130.358 18.9177 130.092 19.091 129.718 19.2364C129.436 19.3461 129.013 19.4761 128.233 19.5116C127.389 19.5503 127.136 19.5583 125 19.5583C122.864 19.5583 122.611 19.5503 121.767 19.5116ZM128.311 8.72943C128.311 9.25945 128.74 9.68947 129.271 9.68947C129.801 9.68947 130.231 9.25945 130.231 8.72943C130.231 8.19913 129.801 7.76954 129.271 7.76954C128.74 7.76954 128.311 8.19913 128.311 8.72943ZM120.892 13.0002C120.892 15.2691 122.731 17.1082 125 17.1082C127.269 17.1082 129.108 15.2691 129.108 13.0002C129.108 10.7312 127.269 8.89203 125 8.89203C122.731 8.89203 120.892 10.7312 120.892 13.0002ZM122.334 13.0001C122.334 11.5273 123.528 10.3334 125.001 10.3334C126.473 10.3334 127.667 11.5273 127.667 13.0001C127.667 14.473 126.473 15.6668 125.001 15.6668C123.528 15.6668 122.334 14.473 122.334 13.0001Z" fill="white"/>
<circle cx="69" cy="13" r="13" fill="#C4C4C4" fill-opacity="0.5"/>
<path fill-rule="evenodd" clip-rule="evenodd" d="M77 7.65713C76.4114 7.93821 75.7787 8.12837 75.1147 8.21377C75.7923 7.77623 76.313 7.08372 76.5579 6.25827C75.9237 6.6633 75.2211 6.95752 74.4734 7.11604C73.8747 6.42906 73.0216 6 72.0774 6C70.2646 6 68.7949 7.58227 68.7949 9.53414C68.7949 9.81108 68.8238 10.0809 68.8798 10.3397C66.1517 10.1923 63.733 8.7851 62.1139 6.6467C61.8314 7.16877 61.6694 7.77589 61.6694 8.42363C61.6694 9.64979 62.249 10.7316 63.1298 11.3655C62.5917 11.347 62.0854 11.1882 61.643 10.9235C61.6427 10.938 61.6427 10.9529 61.6427 10.9677C61.6427 12.6802 62.7742 14.1086 64.2758 14.4334C64.0005 14.5142 63.7104 14.5576 63.411 14.5576C63.1995 14.5576 62.9939 14.5353 62.7934 14.4939C63.2112 15.898 64.4234 16.92 65.8598 16.9485C64.7365 17.8964 63.321 18.4615 61.783 18.4615C61.5181 18.4615 61.2568 18.4447 61 18.412C62.4526 19.4148 64.1782 20 66.0318 20C72.0698 20 75.3715 14.6144 75.3715 9.94401C75.3715 9.79068 75.3683 9.63821 75.3621 9.4866C76.0035 8.98839 76.56 8.36589 77 7.65713Z" fill="white"/>
<circle cx="13" cy="13" r="13" fill="#C4C4C4" fill-opacity="0.5"/>
<path fill-rule="evenodd" clip-rule="evenodd" d="M17 7.75008H15.4C14.2983 7.75008 14.3334 8.14316 14.3334 8.8619V9.99991H17L16.4666 13H14.3334V21H10.6V13H9V9.99991H10.6V8.58692C10.6 6.33782 11.7974 5 14.6268 5H17V7.75008Z" fill="white"/>
</svg>
