<svg width="168" height="244" viewBox="0 0 168 244" fill="none" xmlns="http://www.w3.org/2000/svg">
<g clip-path="url(#clip0_68_110)">
<rect x="0.5" y="0.5" width="167" height="167" rx="4.5" fill="white" stroke="url(#paint0_linear_68_110)"/>
<path d="M76.9727 79.0333C76.9179 79.0163 76.8647 78.9961 76.8136 78.9717C61.5438 73.2363 54.4351 83.939 54.4137 83.97C54.2636 84.1886 54.0431 84.3617 53.7715 84.4493L35.6413 90.3053C34.6161 90.6366 33.7826 91.2824 33.2286 92.1124C32.6766 92.9391 32.4004 93.9579 32.4866 95.0387L33.6618 109.798C33.6886 110.129 33.7875 110.427 33.95 110.676C34.1136 110.927 34.3465 111.138 34.6383 111.296C34.9335 111.454 35.2377 111.533 35.5349 111.531C35.8272 111.529 36.1302 111.446 36.4265 111.281L36.4274 111.283L54.7204 101.13C54.9129 101.02 55.1371 100.96 55.375 100.968C55.4203 100.97 71.2149 101.58 77.1092 102.687C82.3398 103.67 84.5584 101.745 84.565 101.74L84.5662 101.742C84.6276 101.69 84.6948 101.644 84.7678 101.605L102.447 91.9756L77.8784 91.9756V91.9723C77.7696 91.9723 77.6595 91.9579 77.5499 91.9273C76.6199 91.6678 76.0016 91.0316 75.6887 90.2784C75.5061 89.8388 75.431 89.3587 75.4628 88.8956C75.4949 88.4188 75.6421 87.9474 75.9018 87.5396C76.2835 86.9401 76.8845 86.4948 77.6978 86.3712L93.5798 81.4072C94.4471 81.1362 94.9883 80.3979 95.1524 79.5885C95.2262 79.2241 95.2241 78.8453 95.1413 78.4871C95.0654 78.1578 94.9166 77.8483 94.6915 77.5918C94.1725 76.9997 93.1985 76.6684 91.6885 76.9378L78.237 79.3373V79.3353C78.0181 79.3737 77.7869 79.3539 77.5659 79.265C77.3664 79.1845 77.1694 79.1084 76.9727 79.0333ZM76.1005 76.111V59.8639C76.1005 58.2501 76.7584 56.7838 77.8182 55.7216C78.8776 54.6594 80.3406 54 81.9511 54L132.149 54C133.76 54 135.222 54.6594 136.282 55.7216C137.342 56.7838 138 58.2501 138 59.8639V86.1118C138 87.726 137.342 89.1922 136.282 90.254C135.222 91.3162 133.76 91.9756 132.149 91.9756H107.608L86.0473 103.718C85.4669 104.156 82.3872 106.195 76.6549 105.118C71.416 104.133 57.9283 103.546 55.6268 103.451L37.6137 113.448L37.615 113.45C36.9624 113.812 36.2588 113.995 35.5444 114C34.835 114.004 34.1297 113.829 33.4697 113.474C32.8052 113.117 32.2693 112.625 31.8823 112.031C31.4935 111.435 31.2586 110.744 31.1984 109.992L30.0232 95.2325C29.8921 93.5882 30.3228 92.0227 31.1807 90.7374C32.0364 89.455 33.3172 88.4597 34.8873 87.9524L52.6337 82.2203C54.0905 80.3136 61.7499 71.5246 76.1005 76.111ZM107.293 89.4967H107.304H132.149C133.076 89.4967 133.921 89.1154 134.534 88.5014C135.146 87.8875 135.527 87.0414 135.527 86.1118V67.1068L78.5738 67.1068V76.7613L91.2635 74.4973C93.7521 74.0535 95.4987 74.7609 96.5465 75.9557C97.0494 76.5291 97.3804 77.2121 97.547 77.9351C97.6187 78.2446 97.6587 78.5623 97.669 78.882H101.352C101.693 78.882 101.97 79.1597 101.97 79.5018C101.97 79.8439 101.693 80.1215 101.352 80.1215H97.5573C97.3648 81.0267 96.9307 81.8877 96.272 82.5678C96.3585 82.6744 96.4105 82.8103 96.4105 82.9582C96.4105 83.3003 96.1335 83.5779 95.7922 83.5779H94.8243C94.661 83.6502 94.4908 83.7147 94.3139 83.7696L78.3388 88.7634C78.2469 88.7919 78.155 88.8092 78.0631 88.8163C78.021 88.8249 77.9934 88.8435 77.979 88.8663C77.9493 88.9125 77.9316 88.9807 77.9262 89.06C77.92 89.1526 77.934 89.2464 77.9687 89.3294C77.9963 89.3959 78.0408 89.455 78.1018 89.4967L107.293 89.4967ZM122.998 77.4567C123.913 77.4567 124.775 77.6872 125.528 78.0938C125.83 77.9314 126.154 77.7963 126.493 77.6926C126.993 77.5393 127.518 77.4567 128.054 77.4567C129.529 77.4567 130.864 78.0562 131.831 79.025C132.797 79.9938 133.396 81.3324 133.396 82.8103C133.396 84.2885 132.797 85.6272 131.831 86.5964C130.864 87.5652 129.529 88.1647 128.054 88.1647C127.518 88.1647 126.993 88.0821 126.493 87.9288C126.154 87.8247 125.83 87.69 125.528 87.5276C124.775 87.9342 123.913 88.1647 122.998 88.1647C121.523 88.1647 120.188 87.5652 119.221 86.5964C118.254 85.6276 117.656 84.289 117.656 82.8107C117.656 81.3324 118.254 79.9938 119.221 79.025C120.188 78.0557 121.523 77.4567 122.998 77.4567ZM126.996 79.2597C127.832 80.205 128.34 81.4485 128.34 82.8107C128.34 84.1729 127.832 85.4164 126.996 86.3617C127.325 86.4592 127.679 86.5117 128.054 86.5117C129.074 86.5117 129.997 86.0977 130.665 85.428C131.333 84.7583 131.747 83.8328 131.747 82.8103C131.747 81.7881 131.333 80.8627 130.665 80.1934C129.997 79.5237 129.074 79.1093 128.054 79.1093C127.679 79.1093 127.325 79.1622 126.996 79.2597ZM125.61 80.1934C124.942 79.5237 124.018 79.1093 122.998 79.1093C121.978 79.1093 121.055 79.5237 120.387 80.1934C119.719 80.8631 119.305 81.7882 119.305 82.8107C119.305 83.8328 119.719 84.7583 120.387 85.428C121.055 86.0977 121.978 86.5121 122.998 86.5121C124.018 86.5121 124.942 86.0977 125.61 85.428C126.278 84.7583 126.691 83.8328 126.691 82.8107C126.691 81.7882 126.278 80.8631 125.61 80.1934ZM98.6039 83.5779C98.2626 83.5779 97.9856 83.3003 97.9856 82.9582C97.9856 82.6157 98.2626 82.3385 98.6039 82.3385H100.714C101.055 82.3385 101.332 82.6157 101.332 82.9582C101.332 83.3003 101.055 83.5779 100.714 83.5779H98.6039ZM122.594 73.0459C122.252 73.0459 121.976 72.7682 121.976 72.4261C121.976 72.084 122.252 71.8064 122.594 71.8064H130.553C130.895 71.8064 131.171 72.084 131.171 72.4261C131.171 72.7682 130.895 73.0459 130.553 73.0459H122.594ZM104.408 73.0459C104.067 73.0459 103.79 72.7682 103.79 72.4261C103.79 72.084 104.067 71.8064 104.408 71.8064H115.901C116.242 71.8064 116.519 72.084 116.519 72.4261C116.519 72.7682 116.242 73.0459 115.901 73.0459H104.408ZM80.9787 73.0459C80.6374 73.0459 80.3604 72.7682 80.3604 72.4261C80.3604 72.084 80.6374 71.8064 80.9787 71.8064L97.7564 71.8064C98.0981 71.8064 98.3747 72.084 98.3747 72.4261C98.3747 72.7682 98.0981 73.0459 97.7564 73.0459L80.9787 73.0459ZM135.527 65.4542V60.6902L78.5738 60.6902V65.4542L135.527 65.4542ZM135.424 59.0376C135.272 58.4377 134.959 57.9001 134.534 57.4742C133.921 56.8602 133.076 56.4789 132.149 56.4789L81.9511 56.4789C81.0236 56.4789 80.1794 56.8602 79.5668 57.4742C79.1418 57.9001 78.8286 58.4377 78.6764 59.0376L135.424 59.0376Z" fill="#333B41"/>
<path d="M2.82031 209.547V214H1.32031V202.625H5.51562C6.76042 202.625 7.73438 202.943 8.4375 203.578C9.14583 204.214 9.5 205.055 9.5 206.102C9.5 207.206 9.15365 208.057 8.46094 208.656C7.77344 209.25 6.78646 209.547 5.5 209.547H2.82031ZM2.82031 208.32H5.51562C6.31771 208.32 6.93229 208.133 7.35938 207.758C7.78646 207.378 8 206.831 8 206.117C8 205.44 7.78646 204.898 7.35938 204.492C6.93229 204.086 6.34635 203.875 5.60156 203.859H2.82031V208.32ZM16.3125 214C16.2292 213.833 16.1615 213.536 16.1094 213.109C15.4375 213.807 14.6354 214.156 13.7031 214.156C12.8698 214.156 12.1849 213.922 11.6484 213.453C11.1172 212.979 10.8516 212.38 10.8516 211.656C10.8516 210.776 11.1849 210.094 11.8516 209.609C12.5234 209.12 13.4661 208.875 14.6797 208.875H16.0859V208.211C16.0859 207.706 15.9349 207.305 15.6328 207.008C15.3307 206.706 14.8854 206.555 14.2969 206.555C13.7812 206.555 13.349 206.685 13 206.945C12.651 207.206 12.4766 207.521 12.4766 207.891H11.0234C11.0234 207.469 11.1719 207.062 11.4688 206.672C11.7708 206.276 12.1771 205.964 12.6875 205.734C13.2031 205.505 13.7682 205.391 14.3828 205.391C15.3568 205.391 16.1198 205.635 16.6719 206.125C17.224 206.609 17.5104 207.279 17.5312 208.133V212.023C17.5312 212.799 17.6302 213.417 17.8281 213.875V214H16.3125ZM13.9141 212.898C14.3672 212.898 14.7969 212.781 15.2031 212.547C15.6094 212.312 15.9036 212.008 16.0859 211.633V209.898H14.9531C13.1823 209.898 12.2969 210.417 12.2969 211.453C12.2969 211.906 12.4479 212.26 12.75 212.516C13.0521 212.771 13.4401 212.898 13.9141 212.898ZM22.4375 211.883L24.4062 205.547H25.9531L22.5547 215.305C22.0286 216.711 21.1927 217.414 20.0469 217.414L19.7734 217.391L19.2344 217.289V216.117L19.625 216.148C20.1146 216.148 20.4948 216.049 20.7656 215.852C21.0417 215.654 21.2682 215.292 21.4453 214.766L21.7656 213.906L18.75 205.547H20.3281L22.4375 211.883ZM38.7031 212.008L40.3281 205.547H41.7734L39.3125 214H38.1406L36.0859 207.594L34.0859 214H32.9141L30.4609 205.547H31.8984L33.5625 211.875L35.5312 205.547H36.6953L38.7031 212.008ZM44.8203 214H43.375V205.547H44.8203V214ZM43.2578 203.305C43.2578 203.07 43.3281 202.872 43.4688 202.711C43.6146 202.549 43.8281 202.469 44.1094 202.469C44.3906 202.469 44.6042 202.549 44.75 202.711C44.8958 202.872 44.9688 203.07 44.9688 203.305C44.9688 203.539 44.8958 203.734 44.75 203.891C44.6042 204.047 44.3906 204.125 44.1094 204.125C43.8281 204.125 43.6146 204.047 43.4688 203.891C43.3281 203.734 43.2578 203.539 43.2578 203.305ZM49.1016 203.5V205.547H50.6797V206.664H49.1016V211.906C49.1016 212.245 49.1719 212.5 49.3125 212.672C49.4531 212.839 49.6927 212.922 50.0312 212.922C50.1979 212.922 50.4271 212.891 50.7188 212.828V214C50.3385 214.104 49.9688 214.156 49.6094 214.156C48.9635 214.156 48.4766 213.961 48.1484 213.57C47.8203 213.18 47.6562 212.625 47.6562 211.906V206.664H46.1172V205.547H47.6562V203.5H49.1016ZM53.8203 206.57C54.4609 205.784 55.2943 205.391 56.3203 205.391C58.1068 205.391 59.0078 206.398 59.0234 208.414V214H57.5781V208.406C57.5729 207.797 57.4323 207.346 57.1562 207.055C56.8854 206.763 56.4609 206.617 55.8828 206.617C55.4141 206.617 55.0026 206.742 54.6484 206.992C54.2943 207.242 54.0182 207.57 53.8203 207.977V214H52.375V202H53.8203V206.57ZM68.5469 212.977C69.0625 212.977 69.513 212.82 69.8984 212.508C70.2839 212.195 70.4974 211.805 70.5391 211.336H71.9062C71.8802 211.82 71.7135 212.281 71.4062 212.719C71.099 213.156 70.6875 213.505 70.1719 213.766C69.6615 214.026 69.1198 214.156 68.5469 214.156C67.3958 214.156 66.4792 213.773 65.7969 213.008C65.1198 212.237 64.7812 211.185 64.7812 209.852V209.609C64.7812 208.786 64.9323 208.055 65.2344 207.414C65.5365 206.773 65.9688 206.276 66.5312 205.922C67.099 205.568 67.7682 205.391 68.5391 205.391C69.487 205.391 70.2734 205.674 70.8984 206.242C71.5286 206.81 71.8646 207.547 71.9062 208.453H70.5391C70.4974 207.906 70.2891 207.458 69.9141 207.109C69.5443 206.755 69.0859 206.578 68.5391 206.578C67.8047 206.578 67.2344 206.844 66.8281 207.375C66.4271 207.901 66.2266 208.664 66.2266 209.664V209.938C66.2266 210.911 66.4271 211.661 66.8281 212.188C67.2292 212.714 67.8021 212.977 68.5469 212.977ZM78.75 214C78.6667 213.833 78.599 213.536 78.5469 213.109C77.875 213.807 77.0729 214.156 76.1406 214.156C75.3073 214.156 74.6224 213.922 74.0859 213.453C73.5547 212.979 73.2891 212.38 73.2891 211.656C73.2891 210.776 73.6224 210.094 74.2891 209.609C74.9609 209.12 75.9036 208.875 77.1172 208.875H78.5234V208.211C78.5234 207.706 78.3724 207.305 78.0703 207.008C77.7682 206.706 77.3229 206.555 76.7344 206.555C76.2188 206.555 75.7865 206.685 75.4375 206.945C75.0885 207.206 74.9141 207.521 74.9141 207.891H73.4609C73.4609 207.469 73.6094 207.062 73.9062 206.672C74.2083 206.276 74.6146 205.964 75.125 205.734C75.6406 205.505 76.2057 205.391 76.8203 205.391C77.7943 205.391 78.5573 205.635 79.1094 206.125C79.6615 206.609 79.9479 207.279 79.9688 208.133V212.023C79.9688 212.799 80.0677 213.417 80.2656 213.875V214H78.75ZM76.3516 212.898C76.8047 212.898 77.2344 212.781 77.6406 212.547C78.0469 212.312 78.3411 212.008 78.5234 211.633V209.898H77.3906C75.6198 209.898 74.7344 210.417 74.7344 211.453C74.7344 211.906 74.8854 212.26 75.1875 212.516C75.4896 212.771 75.8776 212.898 76.3516 212.898ZM86.3203 206.844C86.1016 206.807 85.8646 206.789 85.6094 206.789C84.6615 206.789 84.0182 207.193 83.6797 208V214H82.2344V205.547H83.6406L83.6641 206.523C84.138 205.768 84.8099 205.391 85.6797 205.391C85.9609 205.391 86.1745 205.427 86.3203 205.5V206.844ZM87.1484 209.703C87.1484 208.406 87.4557 207.365 88.0703 206.578C88.6849 205.786 89.4896 205.391 90.4844 205.391C91.474 205.391 92.2578 205.729 92.8359 206.406V202H94.2812V214H92.9531L92.8828 213.094C92.3047 213.802 91.5 214.156 90.4688 214.156C89.4896 214.156 88.6901 213.755 88.0703 212.953C87.4557 212.151 87.1484 211.104 87.1484 209.812V209.703ZM88.5938 209.867C88.5938 210.826 88.7917 211.576 89.1875 212.117C89.5833 212.659 90.1302 212.93 90.8281 212.93C91.7448 212.93 92.4141 212.518 92.8359 211.695V207.812C92.4036 207.016 91.7396 206.617 90.8438 206.617C90.1354 206.617 89.5833 206.891 89.1875 207.438C88.7917 207.984 88.5938 208.794 88.5938 209.867Z" fill="#333B41"/>
</g>
<defs>
<linearGradient id="paint0_linear_68_110" x1="-7.44304" y1="24.8889" x2="195.1" y2="114.913" gradientUnits="userSpaceOnUse">
<stop stop-color="#F9804B"/>
<stop offset="1" stop-color="#FE9013"/>
</linearGradient>
<clipPath id="clip0_68_110">
<rect width="168" height="244" rx="5" fill="white"/>
</clipPath>
</defs>
</svg>
